Coordinates
version=1
nRows=11
nColumns=40
inDegrees=yes

Units are S.I. units (second, meters, Newtons, ...)
If the header above contains a line with 'inDegrees', this indicates whether rotational values are in degrees (yes) or radians (no).

endheader
time	pelvis_tilt	pelvis_list	pelvis_rotation	pelvis_tx	pelvis_ty	pelvis_tz	hip_flexion_r	hip_adduction_r	hip_rotation_r	knee_angle_r	knee_angle_r_beta	ankle_angle_r	subtalar_angle_r	mtp_angle_r	hip_flexion_l	hip_adduction_l	hip_rotation_l	knee_angle_l	knee_angle_l_beta	ankle_angle_l	subtalar_angle_l	mtp_angle_l	lumbar_extension	lumbar_bending	lumbar_rotation	arm_flex_r	arm_add_r	arm_rot_r	elbow_flex_r	pro_sup_r	wrist_flex_r	wrist_dev_r	arm_flex_l	arm_add_l	arm_rot_l	elbow_flex_l	pro_sup_l	wrist_flex_l	wrist_dev_l
      2.97500000	      1.72954986	     -2.86517012	      0.31193516	     -0.35573212	      0.88606686	     -1.00578257	     55.03797812	     -3.94236624	      1.82827251	     30.11285308	      0.52556843	      6.95123183	      0.00000000	      0.00000000	     39.06473843	     -3.90292700	     -6.02691403	     74.28314626	      1.29648548	     19.96427231	      0.00000000	      0.00000000	    -15.66557105	     -2.60483457	     -4.33909486	     89.89327615	     -3.99490137	     49.37013996	     45.34715586	     83.59865867	      0.00000000	      0.00000000	     89.92840227	    -14.18669607	     50.02218326	     47.62102823	     87.07879567	      0.00000000	      0.00000000
      2.98000000	      1.70041088	     -2.82133675	      0.35922928	     -0.35581578	      0.88564565	     -1.00588184	     55.12637630	     -3.99778769	      1.89338475	     30.15691153	      0.52633740	      6.96502473	      0.00000000	      0.00000000	     39.14571989	     -3.85119329	     -6.04327659	     74.36214390	      1.29786425	     19.98987034	      0.00000000	      0.00000000	    -15.63259256	     -2.64431963	     -4.32881296	     89.89325177	     -4.06953345	     49.44240570	     45.40333367	     83.75700544	      0.00000000	      0.00000000	     89.92855908	    -14.11509503	     49.99406289	     47.55134912	     87.03432163	      0.00000000	      0.00000000
      2.98500000	      1.63941902	     -2.68065411	      0.37875571	     -0.35583240	      0.88513847	     -1.00592324	     55.26875049	     -4.09341055	      2.07126668	     30.21541508	      0.52735848	      6.93818398	      0.00000000	      0.00000000	     39.23448022	     -3.71944461	     -6.12482554	     74.41194735	      1.29873348	     20.01143406	      0.00000000	      0.00000000	    -15.56639728	     -2.79220608	     -4.34831214	     89.89322390	     -4.15066153	     49.74288696	     45.60719339	     81.38728809	      0.00000000	      0.00000000	     89.92892112	    -14.15513556	     50.06049075	     47.62844876	     87.11994528	      0.00000000	      0.00000000
      2.99000000	      1.70614299	     -2.70866154	      0.44174268	     -0.35579030	      0.88485396	     -1.00606085	     55.23807064	     -4.12771180	      1.99204766	     30.26524303	      0.52822814	      6.92387553	      0.00000000	      0.00000000	     39.19601625	     -3.72806554	     -6.10952929	     74.48586314	      1.30002356	     20.04990555	      0.00000000	      0.00000000	    -15.62894033	     -2.74131581	     -4.34048984	     89.89320966	     -4.11978238	     49.47329902	     45.44860803	     83.75483721	      0.00000000	      0.00000000	     89.92864103	    -14.08039996	     49.99395013	     47.54725120	     87.03200189	      0.00000000	      0.00000000
      2.99500000	      1.71500147	     -2.72411103	      0.47088823	     -0.35584398	      0.88451809	     -1.00612828	     55.27066263	     -4.12582936	      2.05009291	     30.29689961	      0.52878065	      6.89757806	      0.00000000	      0.00000000	     39.23193168	     -3.74327424	     -6.10693464	     74.56794509	      1.30145616	     20.09403337	      0.00000000	      0.00000000	    -15.64394582	     -2.71332085	     -4.31668581	     89.89327326	     -4.15486001	     49.52911952	     45.51278074	     82.93222588	      0.00000000	      0.00000000	     89.92873381	    -14.04475693	     49.95395990	     47.50613424	     87.16418282	      0.00000000	      0.00000000
      3.00000000	      1.70890228	     -2.72728098	      0.51888568	     -0.35583740	      0.88417756	     -1.00617309	     55.30550848	     -4.14066102	      2.08783444	     30.31734284	      0.52913745	      6.89600062	      0.00000000	      0.00000000	     39.27614697	     -3.73980747	     -6.10080535	     74.63529634	      1.30263166	     20.11696974	      0.00000000	      0.00000000	    -15.63481521	     -2.68995758	     -4.33090082	     89.89342151	     -4.13377815	     49.64235985	     45.50017541	     80.67715089	      0.00000000	      0.00000000	     89.92850408	    -14.06019881	     49.89774138	     47.52992045	     87.25509906	      0.00000000	      0.00000000
      3.00500000	      1.72760004	     -2.72805062	      0.63128620	     -0.35576102	      0.88380875	     -1.00636908	     55.33435922	     -4.24032200	      2.02182459	     30.40555543	      0.53067705	      6.94948952	      0.00000000	      0.00000000	     39.31699781	     -3.66408539	     -6.00511278	     74.72790085	      1.30424791	     20.11770087	      0.00000000	      0.00000000	    -15.64564679	     -2.65270411	     -4.38283051	     89.89305582	     -4.16455323	     49.46069615	     45.47680537	     83.70194348	      0.00000000	      0.00000000	     89.92869672	    -14.06582529	     50.04395041	     47.55672014	     87.03159094	      0.00000000	      0.00000000
      3.01000000	      1.73503454	     -2.64566912	      0.68369509	     -0.35577610	      0.88349689	     -1.00648828	     55.37132331	     -4.32451291	      2.07902942	     30.41633662	      0.53086522	      6.99299665	      0.00000000	      0.00000000	     39.32316424	     -3.56622337	     -6.03835940	     74.74638980	      1.30457061	     20.15355576	      0.00000000	      0.00000000	    -15.65697667	     -2.72276240	     -4.43695437	     89.89282045	     -4.10902238	     49.44596543	     45.41362262	     83.54663502	      0.00000000	      0.00000000	     89.92884606	    -14.10141205	     50.05471369	     47.58962892	     87.04079101	      0.00000000	      0.00000000
      3.01500000	      1.79080450	     -2.65144916	      0.77098864	     -0.35576254	      0.88326758	     -1.00680800	     55.35010714	     -4.39996493	      2.00714099	     30.47706876	      0.53192520	      7.05340886	      0.00000000	      0.00000000	     39.30253601	     -3.50079516	     -5.97609031	     74.80153368	      1.30553305	     20.15966343	      0.00000000	      0.00000000	    -15.71931144	     -2.68533850	     -4.44081452	     89.89325662	     -4.20188966	     49.47338191	     45.51408023	     83.82811671	      0.00000000	      0.00000000	     89.92882793	    -14.02517098	     50.03151637	     47.52593998	     86.99798457	      0.00000000	      0.00000000
      3.02000000	      1.77176343	     -2.60360010	      0.80250678	     -0.35577158	      0.88296712	     -1.00689407	     55.41701011	     -4.43792233	      2.07712674	     30.52717107	      0.53279965	      7.00079668	      0.00000000	      0.00000000	     39.34425097	     -3.43903192	     -5.99546072	     74.84379943	      1.30627072	     20.18823301	      0.00000000	      0.00000000	    -15.69210374	     -2.72453942	     -4.42830606	     89.89245358	     -4.23839791	     49.50877671	     45.54385920	     83.80483070	      0.00000000	      0.00000000	     89.92906530	    -13.99905303	     50.03918416	     47.49495116	     87.00103027	      0.00000000	      0.00000000
      3.02500000	      1.77689767	     -2.55033683	      0.81550801	     -0.35578296	      0.88267918	     -1.00699609	     55.45752596	     -4.48177759	      2.10195981	     30.55050658	      0.53320693	      7.04335248	      0.00000000	      0.00000000	     39.36108429	     -3.37782723	     -6.02657075	     74.88989463	      1.30707524	     20.22649932	      0.00000000	      0.00000000	    -15.70536805	     -2.76520884	     -4.43573166	     89.89304822	     -4.20267239	     49.50317828	     45.51758008	     83.76603564	      0.00000000	      0.00000000	     89.92867675	    -14.02490952	     49.97199485	     47.53287141	     87.01999248	      0.00000000	      0.00000000
